{"title":"De La Ghetto Ft. Varios - Fronteamos Porque Podemos [2K Video]","uid":12663938,"size":153721176,"categoryP":"video","categoryS":"music_videos","magnet":"?xt=urn:btih:4411d053ed01ccfa719e9337d804ed60bcf033db&amp;dn=De+La+Ghetto+Ft.+Varios+-+Fronteamos+Porque+Podemos+%5B2K+Video%5D&amp;tr=udp%3A%2F%2Ftracker.leechers-paradise.org%3A6969&amp;tr=udp%3A%2F%2Fzer0day.ch%3A1337&amp;tr=udp%3A%2F%2Fopen.demonii.com%3A1337&amp;tr=udp%3A%2F%2Ftracker.coppersurfer.tk%3A6969&amp;tr=udp%3A%2F%2Fexodus.desync.com%3A6969","seeders":0,"leechers":1,"uploader":"MusicVideos-HQ","files":1,"time":1446342812,"description":"General\r\n\r\nFormat                         : MPEG-4\r\nFormat profile                 : Base Media\r\nCodec ID                       : isom\r\nFile size                      : 147 MiB\r\nDuration                       : 5mn 15s\r\nOverall bit rate               : 3 894 Kbps\r\nWriting application            : Lavf55.33.100\r\n\r\nVideo\r\nID                             : 1\r\nFormat                         : AVC\r\nFormat/Info                    : Advanced Video Codec\r\nFormat profile                 :   \r\nFormat settings, CABAC         : Yes\r\nFormat settings, ReFrames      : 3 frames\r\nCodec ID                       : avc1\r\nCodec ID/Info                  : Advanced Video Coding\r\nDuration                       : 5mn 15s\r\nBit rate                       : 3 762 Kbps\r\nWidth                          : 2 048 pixels\r\nHeight                         : 1 152 pixels\r\nDisplay aspect ratio           : 16:9\r\nFrame rate mode                : Variable\r\nFrame rate                     : 23.976 fps\r\nMinimum frame rate             : 23.974 fps\r\nMaximum frame rate             : 90 000.000 fps\r\nColor space                    : YUV\r\nChroma subsampling             : 4:2:0\r\nBit depth                      : 8 bits\r\nScan type                      : Progressive\r\nBits/(Pixel*Frame)             : 0.067\r\nStream size                    : 142 MiB (97%)\r\nColor range                    : Limited\r\nColor primaries                : BT.709\r\nTransfer characteristics       : BT.709\r\nMatrix coefficients            : BT.709\r\n\r\nAudio\r\nID                             : 2\r\nFormat                         : AAC\r\nFormat/Info                    : Advanced Audio Codec\r\nFormat profile                 : LC\r\nCodec ID                       : 40\r\nDuration                       : 5mn 15s\r\nBit rate mode                  : Constant\r\nBit rate                       : 126 Kbps\r\nChannel(s)                     : 2 channels\r\nChannel positions              : Front: L R\r\nSampling rate                  : 44.1 KHz\r\nCompression mode               : Lossy\r\nStream size                    : 4.73 MiB (3%)","torrent":{"xt":"urn:btih:4411d053ed01ccfa719e9337d804ed60bcf033db","amp;dn":"De+La+Ghetto+Ft.+Varios+-+Fronteamos+Porque+Podemos+%5B2K+Video%5D","amp;tr":["udp%3A%2F%2Ftracker.leechers-paradise.org%3A6969","udp%3A%2F%2Fzer0day.ch%3A1337","udp%3A%2F%2Fopen.demonii.com%3A1337","udp%3A%2F%2Ftracker.coppersurfer.tk%3A6969","udp%3A%2F%2Fexodus.desync.com%3A6969"],"infoHash":"4411d053ed01ccfa719e9337d804ed60bcf033db","infoHashBuffer":{"type":"Buffer","data":[68,17,208,83,237,1,204,250,113,158,147,55,216,4,237,96,188,240,51,219]},"announce":[],"urlList":[]}}